<svg width="60" height="60" viewBox="0 0 60 60" fill="none" xmlns="http://www.w3.org/2000/svg">
<circle opacity="0.05" cx="30" cy="30" r="30" fill="#F5F0F1"/>
<circle opacity="0.05" cx="30" cy="30" r="26" fill="#F5F0F1"/>
<path fill-rule="evenodd" clip-rule="evenodd" d="M28.9359 33.9413L28.9034 35.7994H30.9707C31.1816 35.7999 31.3836 35.879 31.5327 36.0193C31.6818 36.1597 31.7658 36.3499 31.7664 36.5483V37.2973V40.0461C31.7658 40.2446 31.6818 40.4348 31.5327 40.5751C31.3836 40.7155 31.1816 40.7945 30.9707 40.795H30.167V37.5119C30.167 37.1843 30.0347 37.2973 29.64 37.2973H27.8636H26.8462C26.5288 37.2963 26.2248 37.177 26.0006 36.9656C25.7764 36.7542 25.6502 36.4678 25.6497 36.1691V32.2557C25.6497 31.9509 25.7783 31.6585 26.0073 31.443C26.2362 31.2275 26.5468 31.1064 26.8706 31.1064H27.481C28.7365 31.1064 28.5351 31.9186 29.0906 32.43C29.6461 32.9414 29.4975 32.9932 30.2484 32.9932H31.862C33.1989 32.9932 32.4724 34.2153 31.689 34.1769H30.2057C29.5464 34.1769 29.4894 34.2766 28.9461 33.9356L28.9359 33.9413ZM20.3388 40.9904V29.369C19.9288 29.5311 19.4711 29.5515 19.0467 29.4265C18.7666 29.3392 18.5192 29.1776 18.3345 28.961C18.1499 28.7402 18.0362 28.4744 18.0069 28.1948C17.9847 27.941 18.0164 27.6857 18.1003 27.4436C18.1841 27.2015 18.3184 26.9776 18.4952 26.785V26.785C18.5157 26.7609 18.5389 26.7391 18.5644 26.7199L30.1751 19.1057C30.2492 19.0415 30.3451 19.0042 30.4457 19.0003C30.5463 18.9965 30.6451 19.0263 30.7245 19.0846L42.3597 26.6892C42.3781 26.7023 42.3951 26.7171 42.4105 26.7333C42.9498 27.2792 43.0841 27.8826 42.9538 28.394C42.8904 28.6415 42.7632 28.8704 42.5835 29.0606C42.4047 29.2504 42.1779 29.3946 41.9242 29.4801C41.6996 29.5536 41.4616 29.584 41.2243 29.5696C40.987 29.5551 40.7552 29.496 40.5426 29.3958V40.9674H39.4031V28.9246C39.4031 28.7331 31.4225 23.7048 30.5414 23.0593C29.6074 23.7278 21.4783 28.7062 21.4783 28.961V41H20.3388V40.9904ZM37.0732 19.6803L40.567 19.8144V24.2565L37.0732 22.0862V19.6803ZM33.0198 34.1789C32.9297 34.1789 32.8433 34.1452 32.7795 34.0852C32.7158 34.0252 32.68 33.9438 32.68 33.859C32.68 33.7741 32.7158 33.6928 32.7795 33.6328C32.8433 33.5728 32.9297 33.5391 33.0198 33.5391H35.3863L36.5909 31.2405C36.6303 31.1643 36.7003 31.1059 36.7854 31.0782C36.8705 31.0506 36.9637 31.0559 37.0447 31.093C37.1256 31.1301 37.1876 31.1959 37.217 31.276C37.2464 31.3561 37.2408 31.4439 37.2014 31.5201L35.9133 33.972C35.889 34.0327 35.8456 34.085 35.7889 34.122C35.7322 34.1589 35.6649 34.1788 35.5959 34.1789H33.0198ZM30.0205 34.4221H36.7781C36.797 34.4221 36.8151 34.4292 36.8285 34.4418C36.8418 34.4543 36.8494 34.4714 36.8494 34.4892V35.4469C36.8494 35.4647 36.8418 35.4818 36.8285 35.4943C36.8151 35.5069 36.797 35.514 36.7781 35.514H36.4587V40.91C36.4581 40.9332 36.4481 40.9553 36.4307 40.9717C36.4132 40.9882 36.3897 40.9976 36.3651 40.9981H35.5511C35.5265 40.9976 35.503 40.9882 35.4855 40.9717C35.4681 40.9553 35.4581 40.9332 35.4575 40.91V35.5101H30.0205C30.0016 35.5101 29.9835 35.5031 29.9701 35.4905C29.9568 35.4779 29.9493 35.4609 29.9493 35.4431V34.4853C29.9493 34.4676 29.9568 34.4505 29.9701 34.4379C29.9835 34.4254 30.0016 34.4183 30.0205 34.4183V34.4221ZM24.7584 40.094C24.7643 40.0461 24.7872 40.0015 24.8235 39.9675C25.1133 39.6966 25.4598 39.4852 25.841 39.3469C26.129 39.2459 26.4301 39.1815 26.7363 39.1554L26.6773 38.4447H24.5204C24.4124 38.4447 24.3089 38.4043 24.2326 38.3325C24.1563 38.2607 24.1134 38.1632 24.1134 38.0616C24.1134 36.466 24.5204 35.2669 24.1134 33.451C23.9954 32.9127 25.1756 32.8342 25.1756 33.4797V37.5559H29.2574C29.4833 37.5559 29.6644 37.8394 29.6644 38.0501V38.347C29.6644 38.3694 29.655 38.3908 29.6382 38.4066C29.6214 38.4224 29.5986 38.4313 29.5749 38.4313H27.4098L27.3264 39.1324C27.6511 39.1537 27.9711 39.2182 28.2766 39.3239C28.6428 39.4466 28.9801 39.6353 29.2696 39.8794C29.3007 39.9063 29.3233 39.9407 29.3352 39.9789C29.347 40.017 29.3476 40.0575 29.3368 40.0959C29.3957 40.1299 29.4433 40.1788 29.4743 40.2371C29.5052 40.2953 29.5182 40.3605 29.5118 40.4253C29.5042 40.529 29.4552 40.626 29.3745 40.6969C29.2939 40.7678 29.1877 40.8073 29.0773 40.8073C28.967 40.8073 28.8608 40.7678 28.7801 40.6969C28.6995 40.626 28.6504 40.529 28.6429 40.4253C28.6368 40.3601 28.6501 40.2945 28.6814 40.236C28.7126 40.1774 28.7606 40.1283 28.8199 40.094C28.6077 39.9403 28.3716 39.8182 28.12 39.7319C27.8263 39.6328 27.5181 39.5772 27.2063 39.5672L27.1534 40.0116V40.0308C27.2469 40.0523 27.3297 40.1034 27.3879 40.1756C27.4461 40.2478 27.4761 40.3367 27.4729 40.4273C27.4729 40.536 27.427 40.6402 27.3453 40.7171C27.2637 40.794 27.1529 40.8372 27.0374 40.8372C26.9219 40.8372 26.8112 40.794 26.7295 40.7171C26.6479 40.6402 26.602 40.536 26.602 40.4273C26.5986 40.3374 26.6281 40.2493 26.6855 40.1775C26.7429 40.1056 26.8248 40.0545 26.9174 40.0327V40.0116L26.8848 39.5749C26.5864 39.5926 26.2927 39.6534 26.0139 39.7549V39.7549C25.762 39.8474 25.5272 39.9767 25.318 40.138C25.3643 40.1725 25.4006 40.2174 25.4234 40.2687C25.4462 40.32 25.4547 40.3759 25.4482 40.4311C25.438 40.5365 25.3884 40.6351 25.3084 40.7094C25.2283 40.7838 25.1229 40.829 25.0107 40.8372C24.8985 40.8296 24.7928 40.7842 24.7132 40.7093C24.6336 40.6343 24.5854 40.5349 24.5773 40.4292C24.5715 40.3632 24.5853 40.2971 24.6173 40.2382C24.6493 40.1793 24.6982 40.13 24.7584 40.0959V40.094ZM28.242 27.7887C28.5717 27.7883 28.8941 27.88 29.1685 28.0522C29.4428 28.2243 29.6567 28.4692 29.7832 28.7558C29.9096 29.0425 29.9429 29.358 29.8788 29.6624C29.8148 29.9668 29.6562 30.2466 29.4232 30.4661C29.1902 30.6857 28.8933 30.8353 28.57 30.896C28.2466 30.9567 27.9114 30.9258 27.6068 30.8071C27.3022 30.6884 27.0418 30.4873 26.8586 30.2293C26.6754 29.9713 26.5776 29.6679 26.5776 29.3575C26.5776 28.9418 26.7529 28.543 27.065 28.2489C27.377 27.9547 27.8004 27.7892 28.242 27.7887V27.7887Z" fill="#F5F0F1"/>
</svg>
