<svg width="60" height="60" viewBox="0 0 60 60" fill="none" xmlns="http://www.w3.org/2000/svg">
<circle opacity="0.05" cx="30" cy="30" r="30" fill="#F5F0F1"/>
<circle opacity="0.05" cx="30" cy="30" r="26" fill="#F5F0F1"/>
<path fill-rule="evenodd" clip-rule="evenodd" d="M28.566 16.4466C29.5906 15.7531 30.7584 15.9052 31.7226 16.6412C31.9754 16.8359 32.1924 17.073 32.3647 17.3616C32.5101 17.6077 32.7674 18.1088 32.2886 18.1871C32.1007 18.2185 31.7696 17.9612 31.5168 17.8784C31.1902 17.7733 30.8546 17.7039 30.5213 17.6703C29.8993 17.6055 29.2886 17.6569 28.7628 17.8023C28.4765 17.8806 28.2013 17.9768 27.9351 18.0999C27.812 18.1581 27.5592 18.3258 27.4899 18.1088C27.3288 17.6077 28.1968 16.6949 28.566 16.4466ZM20.7872 33.8139H22.2504C22.9842 32.673 24.5636 32.0779 25.9753 31.5454C26.2572 31.438 26.5324 31.3351 26.7919 31.23L26.7963 31.2255C27.0357 31.0219 27.2818 30.7781 27.4764 30.561C27.6196 30.4 27.7337 30.2613 27.7941 30.1718C27.7449 30.1293 27.6935 30.0868 27.6442 30.0398C27.2818 29.7132 26.9529 29.3082 26.6554 28.8384C26.3802 28.4022 26.1319 27.9077 25.9082 27.3619C25.8097 27.3328 25.7158 27.297 25.6263 27.2545C25.4988 27.1941 25.3824 27.1247 25.2773 27.0442C24.9663 26.807 24.7627 26.4826 24.6419 26.1269C24.5099 25.7287 24.4853 25.2902 24.539 24.8853C24.5681 24.675 24.6263 24.4938 24.7135 24.3417C24.8052 24.1828 24.9283 24.0531 25.0804 23.9546C25.1252 23.9255 25.1766 23.9143 25.2258 23.9188C25.1386 23.4714 25.152 23.0441 25.1721 22.5407C25.2191 21.2275 25.5525 20.1782 26.5883 19.2677C28.1498 17.8941 31.2394 17.7755 32.9598 18.9567C33.2148 19.1335 33.452 19.3415 33.6645 19.5854C34.3625 20.3863 34.9822 22.1447 34.971 23.2275C34.9688 23.4781 34.9263 23.7331 34.8413 23.9926C34.8368 24.0173 34.8323 24.0463 34.8256 24.0777C35.0158 24.1962 35.1634 24.3417 35.2708 24.5072C35.4319 24.7533 35.5013 25.0352 35.4856 25.3327C35.4699 25.6191 35.3715 25.9211 35.1925 26.2142C34.9867 26.5542 34.669 26.8876 34.2484 27.1762C33.8815 28.033 33.367 28.8921 32.745 29.5812C32.5459 29.8026 32.3334 30.0062 32.1119 30.1874C32.2909 30.3798 32.622 30.6662 32.9374 30.9369C32.9934 30.9839 33.0493 31.0331 33.1052 31.0823C33.4072 31.2188 33.7026 31.3396 33.9979 31.4626C35.3156 32.0018 36.6556 32.5521 37.3514 33.8139H39.2128C39.6826 33.8139 40.0629 34.2524 39.9913 34.7893L38.9734 42.5144C38.904 43.0468 38.5349 43.4898 37.998 43.4898H22.002C21.4651 43.4898 21.096 43.0468 21.0266 42.5144L20.0087 34.7893C19.9371 34.2547 20.3174 33.8139 20.7872 33.8139ZM23.0983 33.8139H36.5572C35.9174 32.966 34.8234 32.5186 33.7451 32.0756C33.5191 31.9839 33.2954 31.8922 33.0806 31.7982C32.9016 32.0421 32.6824 32.2546 32.4341 32.4336C31.839 32.8654 31.0694 33.1137 30.2752 33.1517C29.4854 33.1897 28.6666 33.022 27.9686 32.6193C27.6196 32.4179 27.3019 32.1606 27.0335 31.8452C26.7717 31.9526 26.4921 32.0555 26.208 32.1651C25.0692 32.5991 23.8142 33.0734 23.0983 33.8139ZM29.9105 37.4538C30.5571 37.4538 31.0806 37.9773 31.0806 38.6239C31.0806 39.2704 30.5571 39.7939 29.9105 39.7939C29.264 39.7939 28.7405 39.2704 28.7405 38.6239C28.7405 37.9773 29.264 37.4538 29.9105 37.4538ZM29.3266 28.9771C29.2192 28.9122 29.1857 28.7713 29.2505 28.6639C29.3154 28.5565 29.4564 28.523 29.5637 28.5878C29.736 28.693 29.906 28.7489 30.0716 28.7556C30.2371 28.7623 30.4049 28.7221 30.575 28.6326C30.6868 28.5744 30.8255 28.6192 30.8837 28.731C30.9419 28.8429 30.8971 28.9816 30.7853 29.0398C30.5436 29.165 30.2998 29.2232 30.0537 29.212C29.8098 29.2008 29.566 29.1225 29.3266 28.9771ZM32.0672 25.1672C32.3893 25.1672 32.6488 25.4289 32.6488 25.7488C32.6488 26.071 32.3871 26.3305 32.0672 26.3305C31.7472 26.3305 31.4855 26.0688 31.4855 25.7488C31.4833 25.4267 31.745 25.1672 32.0672 25.1672ZM28.0626 25.1672C28.3847 25.1672 28.6443 25.4289 28.6443 25.7488C28.6443 26.071 28.3825 26.3305 28.0626 26.3305C27.7404 26.3305 27.4809 26.0688 27.4809 25.7488C27.4809 25.4267 27.7404 25.1672 28.0626 25.1672ZM25.3422 24.3528L25.3377 24.3551C25.2504 24.411 25.1811 24.4848 25.1274 24.5788C25.0692 24.6795 25.0312 24.8025 25.0111 24.9502C24.9663 25.288 24.9864 25.6526 25.0938 25.9793C25.1833 26.25 25.3377 26.4938 25.5659 26.6706C25.6464 26.7332 25.7337 26.7847 25.8276 26.8294C25.9238 26.8742 26.0267 26.9099 26.1386 26.9368C26.2169 26.9547 26.2751 27.0106 26.3042 27.08C26.5301 27.6437 26.7784 28.1494 27.0559 28.5901C27.3288 29.0241 27.6308 29.3932 27.9619 29.693C28.3154 30.0129 28.6644 30.2367 29.0067 30.3798C29.6353 30.6438 30.2394 30.6282 30.8009 30.4201C31.3781 30.2076 31.915 29.7915 32.3893 29.2657C32.9889 28.6013 33.4833 27.7646 33.8345 26.9301C33.8569 26.8786 33.895 26.8384 33.9397 26.8138C34.3223 26.5587 34.6041 26.2679 34.7831 25.9726C34.9196 25.7488 34.9934 25.5229 35.0068 25.3126C35.018 25.1135 34.9733 24.9278 34.8704 24.7712C34.8144 24.6884 34.7451 24.6101 34.6556 24.543C34.4766 24.9479 34.1768 25.4826 33.7898 26.0128V23.5832C32.6757 23.0665 31.9486 21.9344 31.5772 20.2297C31.132 23.4736 27.1498 23.3327 26.1476 23.9255V25.8182C25.9574 25.552 25.7874 25.279 25.633 25.0039C25.5077 24.7734 25.4115 24.5587 25.3422 24.3528ZM28.1566 30.447C28.0738 30.5678 27.9552 30.7132 27.8165 30.8675C27.7002 30.9973 27.5659 31.136 27.425 31.2702C27.6666 31.5969 27.9664 31.8541 28.2997 32.0465C28.8836 32.3821 29.5749 32.5231 30.2439 32.4917C30.9105 32.4582 31.5504 32.2546 32.0426 31.8967C32.2797 31.7244 32.481 31.5163 32.6309 31.2792C32.2954 30.9906 31.9441 30.6841 31.7405 30.4626C31.4922 30.6282 31.2327 30.7646 30.962 30.8631C30.2908 31.1114 29.5682 31.1293 28.8188 30.8139C28.6018 30.7221 28.3803 30.6013 28.1566 30.447Z" fill="#F5F0F1"/>
</svg>
