<svg width="60" height="60" viewBox="0 0 60 60" fill="none" xmlns="http://www.w3.org/2000/svg">
<circle opacity="0.05" cx="30" cy="30" r="30" fill="#F5F0F1"/>
<circle opacity="0.05" cx="30" cy="30" r="26" fill="#F5F0F1"/>
<path d="M24.2609 30.9948C24.4054 31.1666 24.3893 31.4222 24.2168 31.566C24.0442 31.7098 23.7874 31.6938 23.6429 31.522C21.8852 29.4771 20.9783 27.1625 21.0004 24.82C21.0225 22.5334 21.9194 20.2348 23.7593 18.1359C23.9037 17.9702 24.1606 17.9542 24.3331 18.098C24.4997 18.2418 24.5177 18.4974 24.3713 18.6691C22.6638 20.6122 21.8291 22.7331 21.813 24.826C21.797 26.9748 22.6316 29.0996 24.2609 30.9948ZM31.4541 26.0182C31.6828 28.834 32.1985 31.4621 32.9489 33.7727H27.9147C28.6711 31.4342 29.1968 28.7721 29.4356 25.9124L29.4255 25.9024C29.1466 25.6248 28.9801 25.2494 28.9801 24.828C28.9801 24.4066 29.1527 24.0312 29.4255 23.7536C29.7044 23.476 30.0817 23.3102 30.505 23.3102C30.9284 23.3102 31.3056 23.482 31.5845 23.7536C31.8634 24.0312 32.0299 24.4066 32.0299 24.828C32.0299 25.0616 31.9778 25.2793 31.8835 25.477C31.7731 25.7007 31.6286 25.8824 31.4541 26.0182ZM33.2137 34.5495C33.4064 35.0887 33.613 35.61 33.8337 36.1092H27.0358C27.2525 35.61 27.4572 35.0887 27.6498 34.5495H33.2137ZM34.1929 36.8901C34.8189 38.1722 37.7363 41.7169 37.7363 42.0204C37.7363 42.1942 37.6922 42.3679 37.6019 42.5417H34.4959C34.526 39.0848 30.1439 37.4392 27.718 39.7738C26.9957 40.4687 26.6185 41.4273 26.4459 42.5417H23.3961C23.2998 42.3719 23.2657 42.1882 23.2777 41.9945C23.2978 41.6769 26.0747 38.1482 26.6787 36.8921H34.1929V36.8901ZM26.3857 29.0277C26.5362 29.1935 26.5202 29.4491 26.3516 29.5989C26.1851 29.7487 25.9283 29.7327 25.7778 29.5649C24.4254 28.0432 23.7312 26.4316 23.7593 24.798C23.7874 23.2084 24.4936 21.6148 25.9343 20.091C26.0908 19.9313 26.3456 19.9193 26.5081 20.075C26.6687 20.2308 26.6807 20.4844 26.5242 20.6462C25.228 22.0202 24.588 23.4261 24.5659 24.81C24.5438 26.2379 25.1658 27.6678 26.3797 29.0357L26.3857 29.0277ZM28.2658 27.1565C28.4042 27.3283 28.3822 27.5819 28.2036 27.7217C28.031 27.8595 27.7762 27.8375 27.6358 27.6618C26.9074 26.7711 26.5282 25.8005 26.5222 24.816C26.5162 23.8574 26.8773 22.8949 27.6177 21.9922C27.7562 21.8205 28.013 21.7925 28.1855 21.9303C28.3581 22.0681 28.3862 22.3237 28.2477 22.4955C27.6298 23.2483 27.3308 24.0412 27.3308 24.81C27.3308 25.6008 27.6538 26.3997 28.2598 27.1465L28.2658 27.1565ZM37.3571 31.52C37.2126 31.6918 36.9558 31.7078 36.7832 31.564C36.6107 31.4202 36.5946 31.1646 36.7391 30.9928C38.3684 29.0996 39.2091 26.9668 39.187 24.824C39.1709 22.7331 38.3362 20.6122 36.6287 18.6691C36.4843 18.5034 36.5003 18.2478 36.6669 18.098C36.8334 17.9542 37.0902 17.9702 37.2407 18.1359C39.0827 20.2348 39.9775 22.5334 39.9996 24.82C40.0217 27.1625 39.1148 29.4771 37.3571 31.52ZM35.2262 29.559C35.0757 29.7247 34.8209 29.7427 34.6524 29.5929C34.4858 29.4431 34.4678 29.1895 34.6183 29.0218C35.8362 27.6538 36.4542 26.2259 36.4321 24.796C36.41 23.4061 35.77 22.0002 34.4738 20.6322C34.3173 20.4725 34.3293 20.2168 34.4899 20.0611C34.6504 19.9053 34.9072 19.9173 35.0637 20.077C36.5064 21.6028 37.2126 23.1924 37.2407 24.786C37.2688 26.4196 36.5786 28.0312 35.2222 29.553L35.2262 29.559ZM33.3682 27.6598C33.2298 27.8315 32.973 27.8595 32.8004 27.7197C32.6279 27.5819 32.5998 27.3263 32.7382 27.1545C33.3502 26.4076 33.6672 25.6088 33.6672 24.818C33.6672 24.0432 33.3723 23.2563 32.7503 22.5034C32.6118 22.3317 32.6339 22.0761 32.8125 21.9383C32.985 21.8005 33.2418 21.8225 33.3803 21.9982C34.1207 22.9008 34.4818 23.8634 34.4758 24.822C34.4698 25.8085 34.0926 26.7711 33.3622 27.6678L33.3682 27.6598Z" fill="#F5F0F1" stroke="#F5F0F1" stroke-width="0.6"/>
</svg>
