<svg width="15" height="7" viewBox="0 0 15 7" fill="none" xmlns="http://www.w3.org/2000/svg">
<g opacity="0.7">
<path d="M14.7381 3.96477C10.2442 7.74962 5.68702 7.74978 1.19299 3.96477C1.02683 3.82503 0.931641 3.61979 0.931641 3.40174C0.931641 3.18369 1.02683 2.97846 1.19299 2.83856C3.43992 0.946292 5.70265 0 7.96553 0C10.2284 0 12.4911 0.946292 14.7381 2.83872C14.9042 2.97862 14.9994 3.18369 14.9994 3.40174C14.9994 3.61979 14.9042 3.82487 14.7381 3.96477ZM7.96553 0.941603C6.60892 0.941603 5.50523 2.0453 5.50523 3.40174C5.50523 4.75819 6.60892 5.86204 7.96553 5.86204C9.32213 5.86204 10.4257 4.75835 10.4257 3.40174C10.4257 2.04514 9.32213 0.941603 7.96553 0.941603Z" fill="#F5F0F1"/>
<path d="M7.96751 2.30759C8.5718 2.30759 9.06167 2.79746 9.06167 3.40175C9.06167 4.00604 8.5718 4.49591 7.96751 4.49591C7.36322 4.49591 6.87335 4.00604 6.87335 3.40175C6.87335 2.79746 7.36322 2.30759 7.96751 2.30759Z" fill="#F5F0F1"/>
</g>
</svg>
