<svg width="724" height="183" viewBox="0 0 724 183" fill="none" xmlns="http://www.w3.org/2000/svg">
<path d="M670.579 117.753C683.72 141.406 696.86 141.406 710 137.463H717.5V176H7V169C13.5701 149.29 26.7103 109.869 39.8505 90.1586C52.9907 70.4482 66.1308 70.4482 79.271 74.3903C92.4112 78.3324 105.551 86.2165 118.692 94.1006C131.832 101.985 144.972 109.869 158.112 109.869C171.252 109.869 184.393 101.985 197.533 86.2165C210.673 70.4482 223.813 46.7958 236.953 34.9696C250.094 23.1434 263.234 23.1434 276.374 38.9116C289.514 54.6799 302.654 86.2165 315.794 90.1586C328.935 94.1006 342.075 70.4482 355.215 46.7958L355.215 46.7955C368.355 23.1432 381.495 -0.509054 394.636 3.433C407.776 7.37507 420.916 38.9116 434.056 42.8537C447.196 46.7958 460.336 23.1434 473.477 15.2592C486.617 7.37507 499.757 15.2592 512.897 38.9116C526.037 62.5641 539.178 101.985 552.318 121.695C565.458 141.406 578.598 141.406 591.738 117.753C604.879 94.1006 618.019 46.7958 631.159 46.7958C644.299 46.7958 657.439 94.1006 670.579 117.753Z" fill="url(#paint0_linear_2_88)"/>
<rect x="333" y="57" width="22" height="126" rx="11" fill="url(#paint1_linear_2_88)"/>
<g filter="url(#filter0_d_2_88)">
<path d="M710 137.463C696.86 141.406 683.72 141.406 670.579 117.753C657.439 94.1006 644.299 46.7958 631.159 46.7958C618.019 46.7958 604.879 94.1006 591.738 117.753C578.598 141.406 565.458 141.406 552.318 121.695C539.178 101.985 526.037 62.5641 512.897 38.9116C499.757 15.2592 486.617 7.37507 473.477 15.2592C460.336 23.1434 447.196 46.7958 434.056 42.8537C420.916 38.9116 407.776 7.37507 394.636 3.433C381.495 -0.50907 368.355 23.1434 355.215 46.7958C342.075 70.4482 328.935 94.1006 315.794 90.1586C302.654 86.2165 289.514 54.6799 276.374 38.9116C263.234 23.1434 250.093 23.1434 236.953 34.9696C223.813 46.7958 210.673 70.4482 197.533 86.2165C184.393 101.985 171.252 109.869 158.112 109.869C144.972 109.869 131.832 101.985 118.692 94.1006C105.551 86.2165 92.4112 78.3324 79.271 74.3903C66.1308 70.4482 52.9907 70.4482 39.8505 90.1586C26.7103 109.869 13.5701 149.29 7.00001 169" stroke="#FF3F58" stroke-width="2"/>
</g>
<path d="M703.205 55.235L716.281 41.6954C716.905 41.0485 718 41.4908 718 42.3901V175C718 175.552 717.552 176 717 176H700.311H661.167H615.033H568.2H521.367H475.233H428.4H381.567H335.433H288.6H241.767H195.633H148.8H101.967H55.833H10C9.44769 176 9 175.552 9 175V73.3256C9 72.2806 10.3962 71.9367 10.8776 72.8641C25.6309 101.285 40.4103 132.15 55.833 132.15C71.211 132.15 86.589 98.6101 101.967 77.6476C118.044 56.6852 133.422 48.3002 148.8 48.3002C164.178 48.3002 179.556 56.6852 195.633 52.4927C211.011 48.3002 226.389 31.5302 241.767 18.9527C257.844 6.37522 273.222 -2.00977 288.6 6.37522C303.978 14.7602 319.356 39.9152 335.433 56.6852C350.811 73.4551 366.189 81.8401 381.567 69.2626C397.644 56.6852 413.022 23.1452 428.4 23.1452C443.778 23.1452 459.156 56.6852 475.233 69.2626C490.611 81.8401 505.989 73.4551 521.367 81.8401C537.444 90.2251 552.822 115.38 568.2 106.995C583.578 98.6101 598.956 56.6852 615.033 56.6852C630.411 56.6852 645.789 98.6101 661.167 102.803C676.579 106.822 691.697 76.6648 700.409 59.1869C701.135 57.7314 702.075 56.4048 703.205 55.235Z" fill="url(#paint2_linear_2_88)"/>
<g filter="url(#filter1_d_2_88)">
<path d="M717 39.9152L712.895 44.0401C704.571 52.4041 698.018 62.2842 692.591 72.7624C684.315 88.7438 672.928 105.87 661.167 102.803C645.789 98.6101 630.411 56.6852 615.033 56.6852C598.956 56.6852 583.578 98.6101 568.2 106.995C552.822 115.38 537.444 90.2251 521.367 81.8401C505.989 73.4551 490.611 81.8401 475.233 69.2626C459.156 56.6852 443.778 23.1452 428.4 23.1452C413.022 23.1452 397.644 56.6852 381.567 69.2626C366.189 81.8401 350.811 73.4551 335.433 56.6852C319.356 39.9152 303.978 14.7602 288.6 6.37522C273.222 -2.00977 257.844 6.37522 241.767 18.9527C226.389 31.5302 211.011 48.3002 195.633 52.4927C179.556 56.6852 164.178 48.3002 148.8 48.3002C133.422 48.3002 118.044 56.6852 101.967 77.6476C86.589 98.6101 71.211 132.15 55.833 132.15C39.756 132.15 24.378 98.6101 9 69.2626" stroke="#18B4F9" stroke-width="2" stroke-linecap="round"/>
</g>
<g filter="url(#filter2_d_2_88)">
<circle cx="344" cy="65" r="7" fill="#F5F0F1"/>
<circle cx="344" cy="65" r="7" stroke="#FF3F58" stroke-width="3"/>
</g>
<circle cx="344" cy="65" r="3" fill="#FEA441"/>
<g filter="url(#filter3_bd_2_88)">
<rect x="307" y="8" width="72" height="40" rx="3" fill="url(#paint3_linear_2_88)"/>
</g>
<path opacity="0.8" d="M324.76 24C324.693 24 324.64 23.98 324.6 23.94C324.56 23.9 324.54 23.8467 324.54 23.78V17.82L322.75 19.2C322.697 19.2333 322.65 19.25 322.61 19.25C322.543 19.25 322.487 19.22 322.44 19.16L322.33 19.02C322.297 18.9733 322.28 18.9267 322.28 18.88C322.28 18.8133 322.31 18.7567 322.37 18.71L324.5 17.07C324.567 17.0233 324.653 17 324.76 17H324.95C325.017 17 325.07 17.02 325.11 17.06C325.15 17.1 325.17 17.1533 325.17 17.22V23.78C325.17 23.8467 325.15 23.9 325.11 23.94C325.07 23.98 325.017 24 324.95 24H324.76ZM329.064 24.1C328.224 24.1 327.618 23.8467 327.244 23.34C326.878 22.8333 326.684 22.1667 326.664 21.34L326.654 20.51L326.664 19.66C326.684 18.8333 326.878 18.1667 327.244 17.66C327.618 17.1533 328.224 16.9 329.064 16.9C329.904 16.9 330.508 17.1533 330.874 17.66C331.248 18.1667 331.444 18.8333 331.464 19.66C331.471 19.8467 331.474 20.13 331.474 20.51C331.474 20.8833 331.471 21.16 331.464 21.34C331.444 22.1667 331.248 22.8333 330.874 23.34C330.508 23.8467 329.904 24.1 329.064 24.1ZM329.064 23.5C329.638 23.5 330.071 23.31 330.364 22.93C330.664 22.5433 330.821 21.9967 330.834 21.29C330.841 21.0967 330.844 20.83 330.844 20.49C330.844 20.15 330.841 19.89 330.834 19.71C330.821 19.0167 330.664 18.4767 330.364 18.09C330.071 17.6967 329.638 17.5 329.064 17.5C328.491 17.5 328.054 17.6967 327.754 18.09C327.461 18.4767 327.308 19.0167 327.294 19.71L327.284 20.49L327.294 21.29C327.308 21.9967 327.461 22.5433 327.754 22.93C328.054 23.31 328.491 23.5 329.064 23.5ZM332.911 24C332.844 24 332.791 23.98 332.751 23.94C332.711 23.9 332.691 23.8467 332.691 23.78V23.3C332.691 23.2333 332.711 23.18 332.751 23.14C332.791 23.0933 332.844 23.07 332.911 23.07H333.391C333.458 23.07 333.511 23.0933 333.551 23.14C333.598 23.18 333.621 23.2333 333.621 23.3V23.78C333.621 23.8467 333.598 23.9 333.551 23.94C333.511 23.98 333.458 24 333.391 24H332.911ZM337.144 24.1C336.677 24.1 336.27 24.0133 335.924 23.84C335.584 23.66 335.32 23.43 335.134 23.15C334.954 22.87 334.857 22.57 334.844 22.25V22.23C334.844 22.1767 334.86 22.1367 334.894 22.11C334.934 22.0767 334.984 22.06 335.044 22.06H335.234C335.3 22.06 335.354 22.0767 335.394 22.11C335.434 22.1367 335.464 22.1967 335.484 22.29C335.584 22.6967 335.787 23 336.094 23.2C336.4 23.4 336.75 23.5 337.144 23.5C337.657 23.5 338.08 23.3467 338.414 23.04C338.754 22.7333 338.924 22.3067 338.924 21.76C338.924 21.4267 338.844 21.1367 338.684 20.89C338.53 20.6433 338.317 20.4533 338.044 20.32C337.77 20.1867 337.47 20.12 337.144 20.12C336.877 20.12 336.66 20.1567 336.494 20.23C336.334 20.2967 336.17 20.39 336.004 20.51C335.904 20.5833 335.82 20.6367 335.754 20.67C335.694 20.7033 335.627 20.72 335.554 20.72H335.374C335.314 20.72 335.26 20.7 335.214 20.66C335.167 20.6133 335.147 20.56 335.154 20.5L335.454 17.23C335.46 17.1567 335.48 17.1 335.514 17.06C335.554 17.02 335.607 17 335.674 17H338.934C339 17 339.054 17.02 339.094 17.06C339.134 17.1 339.154 17.1533 339.154 17.22V17.38C339.154 17.4467 339.134 17.5 339.094 17.54C339.054 17.58 339 17.6 338.934 17.6H336.064L335.854 19.86C336.207 19.6333 336.637 19.52 337.144 19.52C337.597 19.52 338.004 19.6067 338.364 19.78C338.73 19.9533 339.02 20.21 339.234 20.55C339.447 20.8833 339.554 21.2867 339.554 21.76C339.554 22.26 339.447 22.6867 339.234 23.04C339.02 23.3933 338.73 23.66 338.364 23.84C338.004 24.0133 337.597 24.1 337.144 24.1ZM340.909 24C340.842 24 340.789 23.98 340.749 23.94C340.709 23.9 340.689 23.8467 340.689 23.78V23.3C340.689 23.2333 340.709 23.18 340.749 23.14C340.789 23.0933 340.842 23.07 340.909 23.07H341.389C341.456 23.07 341.509 23.0933 341.549 23.14C341.596 23.18 341.619 23.2333 341.619 23.3V23.78C341.619 23.8467 341.596 23.9 341.549 23.94C341.509 23.98 341.456 24 341.389 24H340.909ZM343.082 24C343.015 24 342.962 23.98 342.922 23.94C342.882 23.9 342.862 23.8467 342.862 23.78V23.63C342.862 23.4967 342.945 23.3567 343.112 23.21L345.702 20.62C346.068 20.28 346.315 19.9933 346.442 19.76C346.568 19.5267 346.632 19.25 346.632 18.93C346.632 18.4833 346.502 18.1333 346.242 17.88C345.988 17.6267 345.625 17.5 345.152 17.5C344.705 17.5 344.348 17.63 344.082 17.89C343.815 18.15 343.655 18.5 343.602 18.94C343.595 19.0133 343.565 19.07 343.512 19.11C343.465 19.15 343.418 19.17 343.372 19.17H343.172C343.105 19.17 343.052 19.1533 343.012 19.12C342.978 19.08 342.962 19.0333 342.962 18.98C342.975 18.6533 343.062 18.33 343.222 18.01C343.382 17.69 343.625 17.4267 343.952 17.22C344.278 17.0067 344.678 16.9 345.152 16.9C345.865 16.9 346.395 17.0933 346.742 17.48C347.088 17.8667 347.262 18.35 347.262 18.93C347.262 19.33 347.175 19.69 347.002 20.01C346.828 20.33 346.552 20.6667 346.172 21.02L343.832 23.4H347.182C347.255 23.4 347.312 23.42 347.352 23.46C347.392 23.5 347.412 23.5567 347.412 23.63V23.78C347.412 23.8467 347.388 23.9 347.342 23.94C347.302 23.98 347.248 24 347.182 24H343.082ZM351.018 24.1C350.178 24.1 349.571 23.8467 349.198 23.34C348.831 22.8333 348.638 22.1667 348.618 21.34L348.608 20.51L348.618 19.66C348.638 18.8333 348.831 18.1667 349.198 17.66C349.571 17.1533 350.178 16.9 351.018 16.9C351.858 16.9 352.461 17.1533 352.828 17.66C353.201 18.1667 353.398 18.8333 353.418 19.66C353.424 19.8467 353.428 20.13 353.428 20.51C353.428 20.8833 353.424 21.16 353.418 21.34C353.398 22.1667 353.201 22.8333 352.828 23.34C352.461 23.8467 351.858 24.1 351.018 24.1ZM351.018 23.5C351.591 23.5 352.024 23.31 352.318 22.93C352.618 22.5433 352.774 21.9967 352.788 21.29C352.794 21.0967 352.798 20.83 352.798 20.49C352.798 20.15 352.794 19.89 352.788 19.71C352.774 19.0167 352.618 18.4767 352.318 18.09C352.024 17.6967 351.591 17.5 351.018 17.5C350.444 17.5 350.008 17.6967 349.708 18.09C349.414 18.4767 349.261 19.0167 349.248 19.71L349.238 20.49L349.248 21.29C349.261 21.9967 349.414 22.5433 349.708 22.93C350.008 23.31 350.444 23.5 351.018 23.5ZM354.84 24C354.773 24 354.72 23.98 354.68 23.94C354.64 23.9 354.62 23.8467 354.62 23.78V23.63C354.62 23.4967 354.703 23.3567 354.87 23.21L357.46 20.62C357.826 20.28 358.073 19.9933 358.2 19.76C358.326 19.5267 358.39 19.25 358.39 18.93C358.39 18.4833 358.26 18.1333 358 17.88C357.746 17.6267 357.383 17.5 356.91 17.5C356.463 17.5 356.106 17.63 355.84 17.89C355.573 18.15 355.413 18.5 355.36 18.94C355.353 19.0133 355.323 19.07 355.27 19.11C355.223 19.15 355.176 19.17 355.13 19.17H354.93C354.863 19.17 354.81 19.1533 354.77 19.12C354.736 19.08 354.72 19.0333 354.72 18.98C354.733 18.6533 354.82 18.33 354.98 18.01C355.14 17.69 355.383 17.4267 355.71 17.22C356.036 17.0067 356.436 16.9 356.91 16.9C357.623 16.9 358.153 17.0933 358.5 17.48C358.846 17.8667 359.02 18.35 359.02 18.93C359.02 19.33 358.933 19.69 358.76 20.01C358.586 20.33 358.31 20.6667 357.93 21.02L355.59 23.4H358.94C359.013 23.4 359.07 23.42 359.11 23.46C359.15 23.5 359.17 23.5567 359.17 23.63V23.78C359.17 23.8467 359.146 23.9 359.1 23.94C359.06 23.98 359.006 24 358.94 24H354.84ZM362.455 24C362.389 24 362.335 23.98 362.295 23.94C362.255 23.9 362.235 23.8467 362.235 23.78V17.82L360.445 19.2C360.392 19.2333 360.345 19.25 360.305 19.25C360.239 19.25 360.182 19.22 360.135 19.16L360.025 19.02C359.992 18.9733 359.975 18.9267 359.975 18.88C359.975 18.8133 360.005 18.7567 360.065 18.71L362.195 17.07C362.262 17.0233 362.349 17 362.455 17H362.645C362.712 17 362.765 17.02 362.805 17.06C362.845 17.1 362.865 17.1533 362.865 17.22V23.78C362.865 23.8467 362.845 23.9 362.805 23.94C362.765 23.98 362.712 24 362.645 24H362.455Z" fill="#F5F0F1"/>
<path d="M324.828 40.12C324.156 40.12 323.568 39.992 323.064 39.736C322.56 39.48 322.172 39.132 321.9 38.692C321.628 38.244 321.492 37.74 321.492 37.18C321.492 36.468 321.8 35.692 322.416 34.852L324.612 31.84C324.66 31.768 324.712 31.712 324.768 31.672C324.832 31.624 324.916 31.6 325.02 31.6H326.136C326.208 31.6 326.268 31.628 326.316 31.684C326.364 31.732 326.388 31.792 326.388 31.864C326.388 31.904 326.368 31.956 326.328 32.02L324.648 34.348C324.808 34.308 324.98 34.288 325.164 34.288C325.7 34.304 326.192 34.44 326.64 34.696C327.096 34.944 327.456 35.284 327.72 35.716C327.992 36.148 328.128 36.628 328.128 37.156C328.128 37.692 327.992 38.188 327.72 38.644C327.456 39.092 327.072 39.452 326.568 39.724C326.072 39.988 325.492 40.12 324.828 40.12ZM324.816 38.74C325.272 38.74 325.656 38.604 325.968 38.332C326.28 38.052 326.436 37.664 326.436 37.168C326.436 36.68 326.28 36.3 325.968 36.028C325.656 35.748 325.272 35.608 324.816 35.608C324.36 35.608 323.976 35.748 323.664 36.028C323.352 36.3 323.196 36.68 323.196 37.168C323.196 37.664 323.352 38.052 323.664 38.332C323.976 38.604 324.36 38.74 324.816 38.74ZM332.351 40.12C331.679 40.12 331.091 39.992 330.587 39.736C330.083 39.48 329.695 39.132 329.423 38.692C329.151 38.244 329.015 37.74 329.015 37.18C329.015 36.468 329.323 35.692 329.939 34.852L332.135 31.84C332.183 31.768 332.235 31.712 332.291 31.672C332.355 31.624 332.439 31.6 332.543 31.6H333.659C333.731 31.6 333.791 31.628 333.839 31.684C333.887 31.732 333.911 31.792 333.911 31.864C333.911 31.904 333.891 31.956 333.851 32.02L332.171 34.348C332.331 34.308 332.503 34.288 332.687 34.288C333.223 34.304 333.715 34.44 334.163 34.696C334.619 34.944 334.979 35.284 335.243 35.716C335.515 36.148 335.651 36.628 335.651 37.156C335.651 37.692 335.515 38.188 335.243 38.644C334.979 39.092 334.595 39.452 334.091 39.724C333.595 39.988 333.015 40.12 332.351 40.12ZM332.339 38.74C332.795 38.74 333.179 38.604 333.491 38.332C333.803 38.052 333.959 37.664 333.959 37.168C333.959 36.68 333.803 36.3 333.491 36.028C333.179 35.748 332.795 35.608 332.339 35.608C331.883 35.608 331.499 35.748 331.187 36.028C330.875 36.3 330.719 36.68 330.719 37.168C330.719 37.664 330.875 38.052 331.187 38.332C331.499 38.604 331.883 38.74 332.339 38.74ZM339.09 40C339.01 40 338.942 39.972 338.886 39.916C338.83 39.86 338.802 39.792 338.802 39.712V33.496L336.978 34.9C336.93 34.94 336.874 34.96 336.81 34.96C336.714 34.96 336.634 34.916 336.57 34.828L336.066 34.18C336.026 34.116 336.006 34.056 336.006 34C336.006 33.904 336.05 33.824 336.138 33.76L338.826 31.684C338.898 31.628 338.998 31.6 339.126 31.6H340.182C340.27 31.6 340.338 31.628 340.386 31.684C340.442 31.732 340.47 31.8 340.47 31.888V39.712C340.47 39.792 340.442 39.86 340.386 39.916C340.338 39.972 340.27 40 340.182 40H339.09Z" fill="#F5F0F1"/>
<path d="M347.013 40.1C346.286 40.1 345.683 39.92 345.203 39.56C344.723 39.2 344.469 38.6733 344.443 37.98C344.443 37.92 344.463 37.87 344.503 37.83C344.543 37.7833 344.596 37.76 344.663 37.76H345.203C345.343 37.76 345.429 37.8367 345.463 37.99C345.503 38.4167 345.666 38.7333 345.953 38.94C346.239 39.1467 346.599 39.25 347.033 39.25C347.533 39.25 347.916 39.0867 348.183 38.76C348.456 38.4267 348.593 37.98 348.593 37.42V33.87H345.043C344.976 33.87 344.919 33.85 344.873 33.81C344.833 33.7633 344.813 33.7067 344.813 33.64V33.23C344.813 33.1633 344.833 33.11 344.873 33.07C344.919 33.0233 344.976 33 345.043 33H349.353C349.426 33 349.483 33.0233 349.523 33.07C349.569 33.11 349.593 33.1667 349.593 33.24V37.44C349.593 38.2533 349.363 38.9 348.903 39.38C348.449 39.86 347.819 40.1 347.013 40.1ZM353.27 40.1C352.537 40.1 351.967 39.8933 351.56 39.48C351.16 39.0667 350.947 38.5167 350.92 37.83L350.91 37.4L350.92 36.97C350.947 36.29 351.164 35.7433 351.57 35.33C351.977 34.91 352.544 34.7 353.27 34.7C353.997 34.7 354.564 34.91 354.97 35.33C355.377 35.7433 355.594 36.29 355.62 36.97C355.627 37.0433 355.63 37.1867 355.63 37.4C355.63 37.6133 355.627 37.7567 355.62 37.83C355.594 38.5167 355.377 39.0667 354.97 39.48C354.57 39.8933 354.004 40.1 353.27 40.1ZM353.27 39.33C353.69 39.33 354.02 39.1967 354.26 38.93C354.507 38.6633 354.64 38.28 354.66 37.78C354.667 37.7133 354.67 37.5867 354.67 37.4C354.67 37.2133 354.667 37.0867 354.66 37.02C354.64 36.52 354.507 36.1367 354.26 35.87C354.02 35.6033 353.69 35.47 353.27 35.47C352.85 35.47 352.517 35.6033 352.27 35.87C352.024 36.1367 351.894 36.52 351.88 37.02L351.87 37.4L351.88 37.78C351.894 38.28 352.024 38.6633 352.27 38.93C352.517 39.1967 352.85 39.33 353.27 39.33ZM357.033 33.83C356.966 33.83 356.909 33.81 356.863 33.77C356.823 33.7233 356.803 33.6667 356.803 33.6V33.06C356.803 32.9933 356.823 32.9367 356.863 32.89C356.909 32.8433 356.966 32.82 357.033 32.82H357.663C357.729 32.82 357.786 32.8433 357.833 32.89C357.879 32.9367 357.903 32.9933 357.903 33.06V33.6C357.903 33.6667 357.879 33.7233 357.833 33.77C357.786 33.81 357.729 33.83 357.663 33.83H357.033ZM357.113 40C357.046 40 356.989 39.98 356.943 39.94C356.903 39.8933 356.883 39.8367 356.883 39.77V35.03C356.883 34.9633 356.903 34.91 356.943 34.87C356.989 34.8233 357.046 34.8 357.113 34.8H357.593C357.659 34.8 357.713 34.8233 357.753 34.87C357.799 34.91 357.823 34.9633 357.823 35.03V39.77C357.823 39.8367 357.799 39.8933 357.753 39.94C357.713 39.98 357.659 40 357.593 40H357.113ZM359.534 40C359.468 40 359.411 39.98 359.364 39.94C359.324 39.8933 359.304 39.8367 359.304 39.77V35.03C359.304 34.9633 359.324 34.91 359.364 34.87C359.411 34.8233 359.468 34.8 359.534 34.8H360.004C360.071 34.8 360.124 34.8233 360.164 34.87C360.211 34.91 360.234 34.9633 360.234 35.03V35.47C360.428 35.2233 360.654 35.0333 360.914 34.9C361.181 34.7667 361.511 34.7 361.904 34.7C362.544 34.7 363.041 34.9067 363.394 35.32C363.754 35.7267 363.934 36.27 363.934 36.95V39.77C363.934 39.8367 363.911 39.8933 363.864 39.94C363.824 39.98 363.771 40 363.704 40H363.204C363.138 40 363.081 39.98 363.034 39.94C362.994 39.8933 362.974 39.8367 362.974 39.77V37C362.974 36.5267 362.858 36.16 362.624 35.9C362.398 35.64 362.068 35.51 361.634 35.51C361.214 35.51 360.881 35.6433 360.634 35.91C360.388 36.17 360.264 36.5333 360.264 37V39.77C360.264 39.8367 360.241 39.8933 360.194 39.94C360.154 39.98 360.101 40 360.034 40H359.534Z" fill="#F5F0F1" fill-opacity="0.8"/>
<defs>
<filter id="filter0_d_2_88" x="0.0513306" y="-0.000442505" width="716.236" height="179.317" filterUnits="userSpaceOnUse" color-interpolation-filters="sRGB">
<feFlood flood-opacity="0" result="BackgroundImageFix"/>
<feColorMatrix in="SourceAlpha" type="matrix" values="0 0 0 0 0 0 0 0 0 0 0 0 0 0 0 0 0 0 127 0" result="hardAlpha"/>
<feOffset dy="4"/>
<feGaussianBlur stdDeviation="3"/>
<feComposite in2="hardAlpha" operator="out"/>
<feColorMatrix type="matrix" values="0 0 0 0 1 0 0 0 0 0.247059 0 0 0 0 0.345098 0 0 0 0.15 0"/>
<feBlend mode="normal" in2="BackgroundImageFix" result="effect1_dropShadow_2_88"/>
<feBlend mode="normal" in="SourceGraphic" in2="effect1_dropShadow_2_88" result="shape"/>
</filter>
<filter id="filter1_d_2_88" x="1.99979" y="0.000106812" width="722" height="143.15" filterUnits="userSpaceOnUse" color-interpolation-filters="sRGB">
<feFlood flood-opacity="0" result="BackgroundImageFix"/>
<feColorMatrix in="SourceAlpha" type="matrix" values="0 0 0 0 0 0 0 0 0 0 0 0 0 0 0 0 0 0 127 0" result="hardAlpha"/>
<feOffset dy="4"/>
<feGaussianBlur stdDeviation="3"/>
<feComposite in2="hardAlpha" operator="out"/>
<feColorMatrix type="matrix" values="0 0 0 0 0.0941176 0 0 0 0 0.705882 0 0 0 0 0.976471 0 0 0 0.15 0"/>
<feBlend mode="normal" in2="BackgroundImageFix" result="effect1_dropShadow_2_88"/>
<feBlend mode="normal" in="SourceGraphic" in2="effect1_dropShadow_2_88" result="shape"/>
</filter>
<filter id="filter2_d_2_88" x="329.5" y="54.5" width="29" height="29" filterUnits="userSpaceOnUse" color-interpolation-filters="sRGB">
<feFlood flood-opacity="0" result="BackgroundImageFix"/>
<feColorMatrix in="SourceAlpha" type="matrix" values="0 0 0 0 0 0 0 0 0 0 0 0 0 0 0 0 0 0 127 0" result="hardAlpha"/>
<feOffset dy="4"/>
<feGaussianBlur stdDeviation="3"/>
<feComposite in2="hardAlpha" operator="out"/>
<feColorMatrix type="matrix" values="0 0 0 0 0.94902 0 0 0 0 0.635294 0 0 0 0 0.796078 0 0 0 0.15 0"/>
<feBlend mode="normal" in2="BackgroundImageFix" result="effect1_dropShadow_2_88"/>
<feBlend mode="normal" in="SourceGraphic" in2="effect1_dropShadow_2_88" result="shape"/>
</filter>
<filter id="filter3_bd_2_88" x="282" y="-17" width="122" height="90" filterUnits="userSpaceOnUse" color-interpolation-filters="sRGB">
<feFlood flood-opacity="0" result="BackgroundImageFix"/>
<feGaussianBlur in="BackgroundImage" stdDeviation="12.5"/>
<feComposite in2="SourceAlpha" operator="in" result="effect1_backgroundBlur_2_88"/>
<feColorMatrix in="SourceAlpha" type="matrix" values="0 0 0 0 0 0 0 0 0 0 0 0 0 0 0 0 0 0 127 0" result="hardAlpha"/>
<feOffset dy="4"/>
<feGaussianBlur stdDeviation="5"/>
<feComposite in2="hardAlpha" operator="out"/>
<feColorMatrix type="matrix" values="0 0 0 0 0.131948 0 0 0 0 0.193661 0 0 0 0 0.220833 0 0 0 0.15 0"/>
<feBlend mode="normal" in2="effect1_backgroundBlur_2_88" result="effect2_dropShadow_2_88"/>
<feBlend mode="normal" in="SourceGraphic" in2="effect2_dropShadow_2_88" result="shape"/>
</filter>
<linearGradient id="paint0_linear_2_88" x1="362.25" y1="3" x2="362.25" y2="176" gradientUnits="userSpaceOnUse">
<stop stop-color="#FF3F58" stop-opacity="0.08"/>
<stop offset="1" stop-color="#FF3F58" stop-opacity="0"/>
</linearGradient>
<linearGradient id="paint1_linear_2_88" x1="344" y1="57" x2="344" y2="187.691" gradientUnits="userSpaceOnUse">
<stop stop-color="#18B4F9" stop-opacity="0.1"/>
<stop offset="0.701489" stop-color="#18B4F9" stop-opacity="0"/>
</linearGradient>
<linearGradient id="paint2_linear_2_88" x1="358.5" y1="3" x2="358.5" y2="176" gradientUnits="userSpaceOnUse">
<stop offset="0.0978493" stop-color="#18B4F9" stop-opacity="0.12"/>
<stop offset="0.888841" stop-color="#18B4F9" stop-opacity="0"/>
</linearGradient>
<linearGradient id="paint3_linear_2_88" x1="343" y1="8" x2="343" y2="48" gradientUnits="userSpaceOnUse">
<stop stop-color="#FF3F58"/>
<stop offset="1" stop-color="#E50D29"/>
</linearGradient>
</defs>
</svg>
