<svg width="40" height="40" viewBox="0 0 40 40" fill="none" xmlns="http://www.w3.org/2000/svg">
<circle opacity="0.05" cx="20" cy="20" r="20" fill="#F5F0F1"/>
<path d="M20.004 20.4093C18.7433 20.4093 17.7097 19.3756 17.7097 18.1149V17.1128C17.7097 15.8521 18.7433 14.8184 20.004 14.8184C21.2647 14.8184 22.2983 15.8521 22.2983 17.1128V18.1149C22.2983 19.3758 21.2647 20.4093 20.004 20.4093Z" stroke="#F5F0F1"/>
<path d="M24.8257 25.6384V25.6385V28.5097H15.1858V25.6385C15.1858 23.7461 16.5577 22.1545 18.357 21.8131C18.8584 22.046 19.4167 22.1789 20.006 22.1789C20.5952 22.1789 21.1535 22.046 21.6549 21.8131C23.4542 22.1545 24.826 23.746 24.8257 25.6384Z" stroke="#F5F0F1"/>
<path d="M23.488 20.4447C23.8076 19.9681 24.0318 19.4224 24.134 18.8349C24.5602 18.7861 24.9655 18.668 25.3392 18.4945C27.1384 18.8357 28.5103 20.4272 28.5105 22.3198C28.5105 22.3199 28.5105 22.3199 28.5105 22.3199V25.1911H26.7085C26.5472 23.1356 25.2853 21.338 23.488 20.4447Z" stroke="#F5F0F1"/>
<path d="M24.2005 17.0328C24.1673 15.2712 23.0426 13.7783 21.4796 13.1901C21.7468 12.2191 22.6405 11.5 23.6914 11.5C24.9521 11.5 25.9857 12.5336 25.9856 13.7943V13.7943V14.7965C25.9856 15.8822 25.2188 16.7994 24.2005 17.0328Z" stroke="#F5F0F1"/>
<path d="M15.8763 18.8349C15.9784 19.4223 16.2027 19.9681 16.5223 20.4447C14.7249 21.3379 13.4632 23.1357 13.302 25.1913H11.5V22.3198C11.5 20.4272 12.8719 18.8357 14.6712 18.4944C15.0449 18.668 15.4501 18.7861 15.8763 18.8349Z" stroke="#F5F0F1"/>
<path d="M15.8108 17.0326C14.7924 16.7992 14.0257 15.8822 14.0257 14.7965V13.7943C14.0257 12.5336 15.0593 11.5 16.32 11.5C17.3709 11.5 18.2646 12.2191 18.5317 13.1899C16.9685 13.778 15.8439 15.271 15.8108 17.0326Z" stroke="#F5F0F1"/>
</svg>
